<svg width="144" height="144" viewBox="0 0 144 144" fill="none" xmlns="http://www.w3.org/2000/svg">
<g clip-path="url(#clip0)">
<path d="M25.0108 30.7966H43.6205V113H25.0108V30.7966Z" fill="#3183FF"/>
<path d="M58.1941 30.7966H75.9411V113H58.1941V30.7966Z" fill="#3183FF"/>
<path d="M93.3184 69.1253H84.1984V55.1988H93.3184V37.6983H111.065V55.1988H125.978V69.1253H111.065V91.9253C111.065 94.7188 111.6 96.8961 112.668 98.4572C113.818 99.9361 115.584 100.676 117.967 100.676C119.775 100.676 121.336 100.388 122.65 99.8129C123.965 99.1556 125.197 98.4161 126.348 97.5945L133.496 108.44C127.909 112.877 121.829 115.095 115.256 115.095C111.148 115.095 107.697 114.479 104.903 113.246C102.11 112.096 99.8503 110.494 98.1249 108.44C96.3995 106.304 95.1671 103.757 94.4276 100.799C93.6882 97.841 93.3184 94.5545 93.3184 90.9394V69.1253Z" fill="#3183FF"/>
<path d="M166.097 99.5664C168.316 99.5664 170.288 99.1556 172.013 98.334C173.739 97.4302 175.176 96.2388 176.327 94.7599C177.559 93.281 178.463 91.6378 179.038 89.8302C179.613 87.9405 179.901 86.0097 179.901 84.0378C179.901 82.0659 179.613 80.1761 179.038 78.3686C178.463 76.4788 177.559 74.8356 176.327 73.4388C175.176 71.9599 173.739 70.8096 172.013 69.988C170.288 69.0842 168.316 68.6323 166.097 68.6323C163.879 68.6323 161.866 69.0842 160.059 69.988C158.333 70.8096 156.895 71.9599 155.745 73.4388C154.595 74.8356 153.691 76.4788 153.034 78.3686C152.459 80.1761 152.171 82.0659 152.171 84.0378C152.171 86.0097 152.459 87.9405 153.034 89.8302C153.691 91.6378 154.595 93.281 155.745 94.7599C156.895 96.2388 158.333 97.4302 160.059 98.334C161.866 99.1556 163.879 99.5664 166.097 99.5664ZM135.04 84.0378C135.04 79.7653 135.78 75.7805 137.259 72.0832C138.82 68.3037 140.956 65.0172 143.667 62.2237C146.379 59.4302 149.624 57.2529 153.403 55.6918C157.265 54.0485 161.496 53.2269 166.097 53.2269C170.699 53.2269 174.889 54.0485 178.668 55.6918C182.448 57.2529 185.693 59.4302 188.404 62.2237C191.116 65.0172 193.211 68.3037 194.69 72.0832C196.251 75.7805 197.032 79.7653 197.032 84.0378C197.032 88.3102 196.251 92.3361 194.69 96.1156C193.211 99.8129 191.116 103.058 188.404 105.852C185.693 108.645 182.448 110.864 178.668 112.507C174.889 114.15 170.699 114.972 166.097 114.972C161.496 114.972 157.265 114.15 153.403 112.507C149.624 110.864 146.379 108.645 143.667 105.852C140.956 103.058 138.82 99.8129 137.259 96.1156C135.78 92.3361 135.04 88.3102 135.04 84.0378Z" fill="#3183FF"/>
<path d="M207.798 55.1988H224.806L225.299 61.4842C227.188 59.1837 229.653 57.335 232.693 55.9383C235.815 54.5415 239.061 53.8431 242.429 53.8431C249.085 53.8431 254.343 55.815 258.205 59.7588C262.148 63.7026 264.12 69.5361 264.12 77.2594V113H246.373V79.7242C246.373 76.5199 245.552 73.9729 243.908 72.0832C242.347 70.1934 240.129 69.2486 237.253 69.2486C235.281 69.2486 233.556 69.6183 232.077 70.3577C230.598 71.015 229.366 71.9188 228.38 73.0691C227.394 74.2194 226.654 75.575 226.161 77.1361C225.668 78.6151 225.422 80.2172 225.422 81.9426V113H207.798V55.1988Z" fill="#3183FF"/>
</g>
<defs>
<clipPath id="clip0">
<rect width="144" height="144" fill="white"/>
</clipPath>
</defs>
</svg>
