<svg width="64" height="64" viewBox="0 0 64 64" fill="none" xmlns="http://www.w3.org/2000/svg">
<path d="M31.4361 63.8544C26.4127 62.8697 22.515 59.0999 21.4627 54.2081C21.1339 52.6794 21.1776 50.0908 21.5569 48.6313C22.1532 46.3369 23.3386 44.3067 25.0207 42.6989C26.2455 41.5282 27.111 40.9272 28.4855 40.2934C30.6431 39.2983 30.6251 39.3003 37.8714 39.2082L44.453 39.1246V31.6655V24.2064L28.1454 24.131C10.0101 24.0473 11.3188 24.1221 9.02322 23.0394C7.68152 22.4066 6.79781 21.8024 5.71442 20.7771C4.12521 19.2731 3.10467 17.581 2.47306 15.4029C0.974223 10.234 3.11936 4.70597 7.74198 1.82482C8.98054 1.05286 10.7596 0.387278 12.2034 0.155672C13.6712 -0.0797607 23.7898 -0.0377361 25.6622 0.211587C30.701 0.882481 35.1946 3.03329 38.7873 6.4937C43.1585 10.7039 45.6131 15.9903 46.027 22.0857L46.0619 22.5976L47.1994 22.7007C49.8261 22.9389 53.4935 24.3778 55.6463 26.0149C57.8751 27.7099 60.0955 30.4892 61.1315 32.881C62.1061 35.131 62.7551 38.2013 62.6369 40.0021L62.5888 40.7334L54.3772 40.7712L46.1655 40.809L46.0959 47.0602C46.032 52.8052 46.0014 53.4089 45.718 54.5146C44.7423 58.3229 42.3254 61.2442 38.7993 62.8777C38.1281 63.1886 37.1512 63.5523 36.6283 63.6859C35.3172 64.0209 32.7163 64.1053 31.4361 63.8544ZM36.4089 62.0859C40.0793 61.0984 43.0818 58.0673 44.1175 54.3041C44.4096 53.2427 44.435 52.7448 44.4908 46.9859L44.5507 40.8065L38.4322 40.8095C31.5351 40.8125 31.0556 40.8637 29.096 41.8103C26.2646 43.1778 24.3526 45.2954 23.3877 48.1324C21.3049 54.2561 25.0413 60.7963 31.4361 62.2204C32.6853 62.4986 35.1206 62.4325 36.4089 62.0859ZM60.9811 38.4299C60.6594 35.9454 60.0563 34.0809 58.944 32.1313C56.5009 27.8494 52.0335 24.8754 47.1953 24.3101L46.1349 24.1862V31.6919V39.1977H53.6077H61.0805L60.9811 38.4299ZM44.3276 21.2447C43.72 13.1509 37.7905 5.5851 29.9221 2.8641C26.6539 1.73393 26.236 1.68943 18.8581 1.68599C12.3618 1.68302 12.2623 1.68698 11.1796 2.02543C9.3281 2.60356 8.1636 3.30533 6.77719 4.67847C5.37136 6.07085 4.61774 7.27853 4.06137 9.03051C2.28661 14.6193 5.71845 20.7288 11.4721 22.2234C12.5258 22.4971 13.1972 22.5087 28.4963 22.5164L44.4237 22.5244L44.3276 21.2447ZM42.3075 4.68556C41.5101 4.25202 41.1129 3.60493 41.0538 2.64315C41.0143 1.99831 41.0735 1.70989 41.339 1.25512C41.7358 0.575346 42.7229 0.000960281 43.4943 0.000960281C44.1489 0.000960281 45.2199 0.53058 45.5876 1.03608C46.3948 2.14572 46.1018 3.70811 44.9212 4.58954C44.349 5.01674 43.0073 5.06607 42.3075 4.68556ZM44.6411 4.12837C45.6835 3.44539 45.6466 1.55913 44.5763 0.809414C43.0465 -0.26209 40.9387 1.65983 41.8054 3.33591C42.3743 4.43604 43.6342 4.78813 44.6411 4.12837ZM42.6248 2.57706V1.35047L43.0635 1.28602C44.2084 1.11799 44.9089 1.58807 44.4868 2.24113C44.3149 2.50705 44.3121 2.63374 44.4698 2.99918C44.736 3.61597 44.716 3.80359 44.3841 3.80359C44.1814 3.80359 44.0594 3.66242 43.9734 3.32826C43.8785 2.95945 43.7628 2.84255 43.4573 2.80665C43.0948 2.76401 43.0636 2.80168 43.0636 3.28197C43.0636 3.64813 42.9981 3.80359 42.8442 3.80359C42.6666 3.80359 42.6248 3.56985 42.6248 2.57706ZM43.9147 2.012C43.8846 1.80052 43.7504 1.66621 43.5389 1.63618C43.2709 1.59811 43.2098 1.65918 43.2098 1.96526C43.2098 2.27133 43.2795 2.34107 43.5856 2.34107C43.8917 2.34107 43.9527 2.28 43.9147 2.012Z" fill="black"/>
</svg>
