<svg width="64" height="64" viewBox="0 0 64 64" fill="none" xmlns="http://www.w3.org/2000/svg">
<g clip-path="url(#clip0_101_22)">
<path d="M31.9789 52.8987C27.9809 52.8996 24.0673 51.7486 20.7063 49.5835C17.3448 47.418 14.6752 44.3291 12.9906 40.6848C11.333 37.0417 10.7572 32.9991 11.3318 29.0381C11.9063 25.0772 13.6069 21.3647 16.2312 18.3427L7.74398 11.0977C4.99621 14.289 2.90714 17.9925 1.59716 21.9948C0.283896 25.9973 -0.227389 30.2194 0.0925848 34.4196C0.4115 38.6195 1.55857 42.7166 3.43605 46.4741C5.33979 50.2299 7.96616 53.573 11.1646 56.3116C14.3614 59.0507 18.0676 61.1288 22.0694 62.4327C26.0704 63.7356 30.2896 64.2338 34.4839 63.8987C38.6761 63.5643 42.7654 62.4018 46.5101 60.4781C50.2556 58.5567 53.5847 55.9145 56.3064 52.7032L47.8192 45.4608C45.8661 47.7913 43.4255 49.6648 40.6693 50.9492C37.9123 52.2351 34.9134 52.8987 31.8735 52.8961L31.9789 52.8987Z" fill="#5A646E"/>
<path d="M31.9789 1.999e-05C27.3881 -0.0051238 22.8487 0.982484 18.6823 2.8934C14.5073 4.80588 10.7946 7.59742 7.79801 11.0772L16.2595 18.3222C19.8653 14.1634 24.9654 11.6018 30.4487 11.198C35.9319 10.7943 41.3535 12.5689 45.5328 16.1489C49.7121 19.729 52.3072 24.8162 52.7598 30.3021C53.2081 35.7883 51.4723 41.2296 47.9298 45.4428L56.3913 52.6852C60.3263 48.025 62.8545 42.3359 63.6698 36.2869C64.4845 30.2378 63.5547 24.082 60.9899 18.5434C58.426 13.0073 54.3327 8.31969 49.1926 5.03321C44.0411 1.76948 38.0743 1.999e-05 31.9789 1.999e-05Z" fill="#00AEEF"/>
</g>
<defs>
<clipPath id="clip0_101_22">
<rect width="64" height="64" fill="white"/>
</clipPath>
</defs>
</svg>
