<svg width="64" height="64" viewBox="0 0 64 64" fill="none" xmlns="http://www.w3.org/2000/svg">
<path d="M7.10188 34.6898C0.716378 23.6298 4.50582 9.48739 15.5658 3.10189C26.6259 -3.28362 40.7683 0.50582 47.1538 11.5658L57.3985 29.3102C63.784 40.3702 59.9945 54.5126 48.9345 60.8981C37.8745 67.2836 23.7321 63.4942 17.3466 52.4342L7.10188 34.6898Z" fill="black"/>
<path d="M32.3718 14.5283L24.5773 16.1894V22.9617H22.469V28.9034H24.6412V41.0424C24.6412 47.048 30.3274 48.0702 33.5857 48.0702C35.4769 48.0702 37.8663 47.5591 38.8247 47.3035V40.9146C38.2497 41.1276 36.6524 41.5535 34.8635 41.5535C33.0746 41.5535 32.457 40.1053 32.3718 39.3813V28.9034H39.0163V22.9617H32.3718V14.5283Z" fill="white"/>
<circle cx="46.8108" cy="43.6618" r="4.53615" fill="#D22587"/>
</svg>