<svg width="64" height="64" viewBox="0 0 64 64" fill="none" xmlns="http://www.w3.org/2000/svg">
<path d="M42.3082 55.7124C39.9835 53.3878 39.7532 49.7482 41.8129 47.8843C46.225 43.8914 53.4562 50.7944 50.1828 55.8742C48.6048 58.3231 44.8415 58.2457 42.3082 55.7124ZM16.6211 51.5919C11.9421 49.7385 10.3306 44.1147 13.6044 41.0646C15.956 38.8738 21.2315 38.8872 24.0334 41.0915C26.6308 43.1346 26.9537 47.9481 24.6341 50.0472C23.0359 51.4935 18.5538 52.3574 16.6211 51.5919ZM58.1396 45.4246C55.4258 42.7109 55.6709 39.1624 58.5957 38.8212C61.3777 38.4967 64.3154 41.7145 63.9726 44.7109C63.6183 47.8086 60.861 48.146 58.1396 45.4246ZM39.1927 42.1224C37.208 40.1376 37.9648 37.5205 40.6113 37.2171C43.5004 36.8858 45.1144 38.2885 45.1144 41.1307C45.1144 43.1213 44.8224 43.4082 42.7965 43.4082C41.5217 43.4082 39.9 42.8296 39.1927 42.1224ZM27.7018 38.4264C26.26 37.697 25.7231 36.7875 25.7231 35.0743C25.7231 32.9906 26.0216 32.6946 28.3472 32.4714C29.7904 32.3329 31.4822 32.6437 32.1067 33.1619C33.7356 34.5138 33.5074 37.6702 31.7113 38.6315C29.8471 39.6291 30.1052 39.6425 27.7018 38.4264ZM49.2029 38.1871C47.0794 36.6998 47.1566 33.6697 49.3286 33.2555C52.4503 32.6603 55.4098 37.8801 52.5687 38.9703C50.9809 39.5797 51.2956 39.6529 49.2029 38.1871ZM36.7977 31.6431C32.6506 29.7591 30.1416 25.4487 31.481 22.509C32.6295 19.9884 35.6566 19.188 39.5874 20.3657C45.5876 22.1634 48.8357 29.157 44.9383 31.8868C42.6654 33.4788 40.7096 33.4203 36.7977 31.6431ZM57.4357 30.0119C55.5178 27.8927 56.1353 25.5411 58.5384 25.8122C61.1472 26.1065 62.527 27.4354 62.527 29.6542C62.527 32.0413 59.4668 32.2562 57.4357 30.0119ZM50.0216 29.0032C48.5516 27.5332 48.8646 25.2041 50.5321 25.2041C52.1206 25.2041 54.6122 27.538 54.6122 29.026C54.6122 30.2397 51.2414 30.2242 50.0216 29.0032ZM4.50042 27.5942C1.2001 26.561 0 25.272 0 22.7606C0 19.832 2.35165 18.5746 6.87561 19.0846C10.8591 19.5335 13.4552 21.4899 13.4552 24.0427C13.4552 27.2384 9.00347 29.004 4.50042 27.5942ZM18.7034 26.9015C16.2654 24.2076 18.7359 21.7768 22.878 22.7939C25.1829 23.3599 26.55 25.3135 25.8739 27.0752C25.1749 28.897 20.4047 28.7816 18.7034 26.9015ZM44.9166 21.1939C43.0043 20.0654 43.1048 17.2893 45.0579 17.2893C46.873 17.2893 49.2667 19.4743 48.8437 20.745C48.4356 21.9707 46.5903 22.1817 44.9166 21.1939ZM24.5379 19.033C22.2957 17.2174 22.8599 14.9148 25.547 14.9148C28.1235 14.9148 30.3048 16.7027 29.9564 18.5289C29.5606 20.6036 26.7952 20.8609 24.5379 19.033ZM47.5439 16.9522C45.6313 14.9163 45.897 13.3319 48.1509 13.3319C50.2423 13.3319 53.0292 15.6184 53.0292 17.3342C53.0292 19.5533 49.7746 19.3267 47.5439 16.9522ZM35.0013 16.8487C32.6929 15.2318 32.7298 13.3319 35.0696 13.3319C37.6441 13.3319 39.9415 15.1901 39.3318 16.7791C38.7053 18.4117 37.2658 18.4347 35.0013 16.8487ZM14.3226 13.0893C9.13211 11.2694 8.8205 7 13.8781 7C18.9984 7 22.6077 10.3981 20.1247 12.8812C18.6717 14.3341 17.947 14.3601 14.3226 13.0893ZM30.6699 11.2962C27.6506 9.65819 27.7187 7 30.7801 7C33.7125 7 36.848 9.46102 36.1692 11.2299C35.5526 12.8367 33.554 12.8607 30.6699 11.2962Z" fill="#83B231"/>
</svg>
