<svg width="64" height="64" viewBox="0 0 64 64" fill="none" xmlns="http://www.w3.org/2000/svg">
<g clip-path="url(#clip0_101_2)">
<path fill-rule="evenodd" clip-rule="evenodd" d="M48.4099 40.6666C48.4099 44.0725 45.7106 46.834 42.3809 46.834C41.6822 46.834 41.1157 46.2546 41.1157 45.5397V18.4601C41.1157 17.7454 41.6822 17.166 42.3809 17.166H47.1449C47.8435 17.166 48.4099 17.7454 48.4099 18.4601V40.6666ZM36.2535 45.5397C36.2535 46.2546 35.687 46.834 34.9885 46.834H30.2247C29.5259 46.834 28.9597 46.2546 28.9597 45.5397V25.8773C28.9597 25.1626 29.5259 24.5832 30.2247 24.5832H34.9885C35.687 24.5832 36.2535 25.1626 36.2535 25.8773V45.5397ZM24.0971 45.5397C24.0971 46.2546 23.5306 46.834 22.8321 46.834H18.0683C17.3695 46.834 16.8033 46.2546 16.8033 45.5397V22.1908C16.8033 21.4762 17.3695 20.8967 18.0683 20.8967H22.8321C23.5306 20.8967 24.0971 21.4762 24.0971 22.1908V45.5397ZM41.1157 1H24.0971C11.341 1 1 11.5783 1 24.6275V61.7059C1 62.4207 1.56633 63 2.265 63H41.1157C53.8722 63 64.213 52.4215 64.213 39.3723V24.6275C64.213 11.5783 53.8722 1 41.1157 1Z" fill="#E02B57"/>
</g>
<defs>
<clipPath id="clip0_101_2">
<rect width="64" height="64" fill="white"/>
</clipPath>
</defs>
</svg>
