<svg width="64" height="64" viewBox="0 0 64 64" fill="none" xmlns="http://www.w3.org/2000/svg">
<rect width="64" height="64" rx="8" fill="#051D3B"/>
<path fill-rule="evenodd" clip-rule="evenodd" d="M37.4288 32.1705C37.3973 32.3695 37.3207 32.5589 37.2045 32.7244C37.0884 32.89 36.9358 33.0275 36.7582 33.1266C36.4006 33.3546 36.0877 33.4687 35.771 33.5827C35.0968 33.8125 34.3871 34.0423 33.6364 34.309C32.8448 34.5756 32.1351 34.8422 31.5018 35.0353C30.7121 35.3019 29.9614 35.5317 29.248 35.7984C28.7113 36.0251 28.2072 36.3206 27.7486 36.6773C27.3221 37.0587 26.9499 37.4954 26.6422 37.9754C26.3255 38.5087 26.1262 39.1964 26.1262 39.9981C26.1262 41.6033 26.5211 42.8242 27.3127 43.5873C28.1025 44.3908 29.5665 44.7715 31.7365 44.7715C33.9494 44.7715 35.4507 44.3522 36.2442 43.5119C37.0321 42.6716 37.4269 41.4893 37.4269 39.9631L37.4288 32.1705ZM31.7384 15.254C35.6127 15.254 38.457 15.9803 40.2731 17.4697C42.091 18.9223 43 20.7905 43 23.0043V41.8699C43 42.633 42.8435 43.4733 42.5679 44.389C42.2885 45.3084 41.7371 46.1469 40.8673 46.9081C40.0384 47.6749 38.8928 48.3239 37.4307 48.8204C35.9685 49.3169 34.0723 49.5835 31.7403 49.5835C29.4119 49.5835 27.512 49.3169 26.0517 48.8204C24.5914 48.3239 23.444 47.6749 22.6151 46.9081C21.844 46.2221 21.2599 45.3559 20.9164 44.389C20.637 43.4751 20.4787 42.6348 20.4787 41.8718V38.8562C20.4787 37.251 20.9127 35.7616 21.7825 34.4616C22.6524 33.1266 23.8761 32.2109 25.4575 31.6373C26.2473 31.3706 27.1563 31.104 28.1826 30.7602C29.2108 30.4145 30.157 30.0706 31.107 29.7672C32.0569 29.4602 32.8858 29.1531 33.5955 28.8846C34.0237 28.7155 34.4587 28.5634 34.8993 28.4286L35.6109 28.0848C35.8903 27.9322 36.1641 27.7023 36.4416 27.3971C36.7173 27.0937 36.9538 26.7498 37.1531 26.3674C37.3637 25.9532 37.4722 25.4958 37.4698 25.0325V23.8097C37.4727 23.3615 37.3774 22.9181 37.1904 22.5097C37.0339 22.05 36.7173 21.6308 36.2833 21.2501C35.8493 20.8677 35.2551 20.5624 34.5454 20.3308C33.8339 20.1046 32.8877 19.9888 31.8185 19.9888C29.6057 19.9888 28.1435 20.4117 27.3537 21.2869C26.6832 22.0518 26.2883 23.0061 26.21 24.0745C26.21 24.3043 26.0126 24.4569 25.7742 24.4569L20.9555 24.5342C20.841 24.5346 20.731 24.4905 20.6494 24.4113C20.5677 24.3321 20.5211 24.2242 20.5196 24.1112V23.008C20.5196 21.936 20.719 20.9431 21.1529 19.9888C21.5888 19.0326 22.2612 18.2327 23.1683 17.5432C24.0773 16.8574 25.2638 16.2855 26.685 15.903C28.069 15.4434 29.7677 15.254 31.7421 15.254H31.7384Z" fill="white"/>
</svg>
