<svg width="64" height="64" viewBox="0 0 64 64" fill="none" xmlns="http://www.w3.org/2000/svg">
<rect width="64" height="64" rx="8" fill="#090D17"/>
<path d="M17.0823 27.6207C15.2365 27.6207 13.7822 28.1937 12.6915 29.2579V22H9V41.6453H12.6915V35.6153C12.6915 32.2865 14.0619 30.9222 16.1594 30.9222C17.8653 30.9222 18.984 32.2047 18.984 34.1146V41.6453H22.6755V33.3506C22.6755 29.9673 20.4382 27.6207 17.0823 27.6207Z" fill="white"/>
<path d="M28.8333 27.7026C24.6664 27.7026 21.2265 30.5675 21.2265 34.8513C21.2265 39.1351 24.6664 42 28.8333 42C32.9164 42 36.3564 39.1351 36.3564 34.8513C36.3564 30.5675 32.9164 27.7026 28.8333 27.7026ZM28.8333 38.9168C26.8198 38.9168 24.8062 37.3888 24.8062 34.8513C24.8062 32.3138 26.8198 30.7858 28.8333 30.7858C30.763 30.7858 32.7766 32.3138 32.7766 34.8513C32.7766 37.3888 30.763 38.9168 28.8333 38.9168Z" fill="white"/>
<path d="M54.8617 28.03H51.1979L48.4294 36.4338L45.5769 28.03H42.6964L39.8436 36.4066L37.0752 28.03H33.4115L38.054 41.6726H41.3819L44.1504 33.6508L46.8911 41.6726H50.2193L54.8617 28.03Z" fill="white"/>
</svg>
